<svg width="58" height="90" viewBox="0 0 58 90" fill="none" xmlns="http://www.w3.org/2000/svg">
<path d="M8.816 19.744C12.848 17.008 17.312 15.28 22.352 15.28C29.12 15.28 34.016 18.592 34.016 25.648C34.016 36.736 23.504 37.456 15.008 37.456H11.696V52.288C13.856 52.288 16.016 52.144 18.752 52.144C27.104 52.144 36.752 53.44 36.752 63.664C36.752 72.016 28.4 74.32 21.632 74.32C15.296 74.32 10.256 72.736 4.64 70L0.32 83.968C7.808 88 16.592 89.44 25.088 89.44C41.36 89.44 57.632 82.96 57.632 64.096C57.632 53.296 50.576 45.664 40.208 43.504C48.992 39.472 54.608 33.424 54.608 23.2C54.608 7.79199 40.064 0.159998 26.384 0.159998C17.744 0.159998 9.968 1.6 2.624 6.352L8.816 19.744Z" fill="black" fill-opacity="0.05"/>
</svg>
