<svg width="59" height="89" viewBox="0 0 59 89" fill="none" xmlns="http://www.w3.org/2000/svg">
<path d="M9.848 0.887993L5.528 47.4C9.992 46.392 14.744 45.672 19.352 45.672C28.136 45.672 37.496 49.272 37.496 59.64C37.496 69.288 28.712 73.032 20.36 73.032C14.456 73.032 9.704 71.88 4.376 69.144L0.2 83.688C6.968 87.144 14.888 88.44 22.52 88.44C41.672 88.44 58.232 79.512 58.232 58.344C58.232 40.632 45.56 31.416 28.712 31.416C26.84 31.416 24.968 31.272 23.096 31.704L24.824 16.008H54.488V0.599997L9.848 0.887993Z" fill="black" fill-opacity="0.05"/>
</svg>
