<svg width="67" height="90" viewBox="0 0 67 90" fill="none" xmlns="http://www.w3.org/2000/svg">
<path d="M41.36 0.159998C13.712 0.159998 0.752 22.912 0.752 47.824C0.752 69.712 11.12 89.44 35.6 89.44C54.032 89.44 66.992 77.056 66.992 58.48C66.992 41.776 56.192 29.968 39.344 29.968C33.152 29.968 26.384 31.552 21.632 35.728C22.784 24.208 29.552 15.424 41.792 15.424C46.256 15.424 50.864 16.432 54.752 18.736L59.216 3.90399C53.6 1.024 47.552 0.159998 41.36 0.159998ZM21.488 57.184C21.488 49.264 27.248 45.088 34.736 45.088C43.52 45.088 46.688 51.136 46.688 59.2C46.688 65.968 43.232 74.752 35.312 74.752C25.52 74.752 21.488 65.824 21.488 57.184Z" fill="black" fill-opacity="0.05"/>
</svg>
