<svg width="210" height="44" viewBox="0 0 210 44" fill="none" xmlns="http://www.w3.org/2000/svg">
<path d="M19.9219 19.25L17.5781 23.9375H0V19.25H19.9219ZM19.9219 33.3125L17.5781 38H0V33.3125H19.9219ZM19.9219 26.2812L17.5781 30.9688H0V26.2812H19.9219ZM25.7812 33.3125H38.6719L36.3281 38H21.0938V18.0781L25.7812 20.4219V33.3125ZM51.5625 33.3125L53.9062 30.9688V23.9375H46.875L44.5312 26.2812V33.3125H51.5625ZM58.5938 33.3125L53.9062 38H39.8438V23.9375L44.5312 19.25H58.5938V33.3125Z" fill="#4B5962"/>
<path d="M66.8906 38V19.25H83.2969L85.6406 23.9375L80.9531 28.625L85.6406 33.3125L83.2969 38H66.8906ZM71.5781 33.3125H78.6094L73.9219 28.625L78.6094 23.9375H71.5781V33.3125ZM99.7031 33.3125L102.047 30.9688V23.9375H95.0156L92.6719 26.2812V33.3125H99.7031ZM106.734 33.3125L102.047 38H87.9844V23.9375L92.6719 19.25H106.734V33.3125ZM120.797 33.3125L123.141 30.9688V23.9375H116.109L113.766 26.2812V33.3125H120.797ZM127.828 33.3125L123.141 38H109.078V23.9375L113.766 19.25H127.828V33.3125ZM137.203 23.9375L134.859 26.2812H148.922V33.3125L144.234 38H129L131.344 33.3125H141.891L144.234 30.9688H130.172V23.9375L134.859 19.25H150.094L147.75 23.9375H137.203ZM171.188 19.25L168.844 23.9375H162.984V36.8281L158.297 39.1719V23.9375H151.266V19.25H171.188Z" fill="#F2F2F2"/>
<path d="M181.516 11.4844H192.941L191.184 15H178V6.21094H188.547L186.789 4.45312H177.121L178.879 0.9375H188.547L192.062 4.45312V9.72656H181.516V11.4844ZM193.82 0.9375H197.336V6.21094H204.367V1.81641L207.883 0.0585938V15H204.367V9.72656H193.82V0.9375Z" fill="#865BCE"/>
</svg>
